<svg width="170" height="142" viewBox="0 0 170 142" fill="none" xmlns="http://www.w3.org/2000/svg">
<g filter="url(#filter0_dddd_106_2)">
<rect width="144" height="96" rx="8" transform="matrix(1 0 0 -1 13 99)" fill="url(#paint0_linear_106_2)"/>
<rect x="-0.5" y="0.5" width="145" height="97" rx="8.5" transform="matrix(1 0 0 -1 13 100)" stroke="url(#paint1_linear_106_2)"/>
</g>
<mask id="mask0_106_2" style="mask-type:alpha" maskUnits="userSpaceOnUse" x="13" y="3" width="144" height="96">
<rect x="13" y="3" width="144" height="96" rx="8" fill="#630202"/>
</mask>
<g mask="url(#mask0_106_2)">
<g opacity="0.4">
<g filter="url(#filter1_f_106_2)">
<path d="M16 99L154 99L93.5551 44.6872C90.5309 41.9698 89.0187 40.611 87.3091 40.0956C85.8032 39.6416 84.1968 39.6416 82.6909 40.0956C80.9813 40.611 79.4691 41.9698 76.4449 44.6872L16 99Z" fill="#750000" fill-opacity="0.4"/>
</g>
<g filter="url(#filter2_f_106_2)">
<path d="M24 99L146 99L94.5281 41.6215C91.2296 37.9444 89.5803 36.1059 87.6365 35.4274C85.9294 34.8315 84.0706 34.8315 82.3635 35.4274C80.4197 36.1059 78.7704 37.9444 75.4719 41.6215L24 99Z" fill="#320000" fill-opacity="0.2"/>
</g>
<g filter="url(#filter3_f_106_2)">
<path d="M16 99L154 99L94.3617 35.0401C91.1076 31.5502 89.4806 29.8053 87.5783 29.1576C85.9065 28.5885 84.0935 28.5885 82.4217 29.1576C80.5194 29.8053 78.8924 31.5502 75.6383 35.0401L16 99Z" fill="#750000"/>
</g>
</g>
<g filter="url(#filter4_f_106_2)">
<rect x="13" y="3" width="144" height="96" stroke="url(#paint2_linear_106_2)" stroke-width="16"/>
</g>
<rect x="13.5" y="3.5" width="143" height="95" rx="7.5" stroke="#750000" stroke-opacity="0.4"/>
</g>
<defs>
<filter id="filter0_dddd_106_2" x="0" y="0" width="170" height="142" filterUnits="userSpaceOnUse" color-interpolation-filters="sRGB">
<feFlood flood-opacity="0" result="BackgroundImageFix"/>
<feColorMatrix in="SourceAlpha" type="matrix" values="0 0 0 0 0 0 0 0 0 0 0 0 0 0 0 0 0 0 127 0" result="hardAlpha"/>
<feOffset dy="2"/>
<feGaussianBlur stdDeviation="2"/>
<feColorMatrix type="matrix" values="0 0 0 0 0.117647 0 0 0 0 0.160784 0 0 0 0 0.231373 0 0 0 0.08 0"/>
<feBlend mode="normal" in2="BackgroundImageFix" result="effect1_dropShadow_106_2"/>
<feColorMatrix in="SourceAlpha" type="matrix" values="0 0 0 0 0 0 0 0 0 0 0 0 0 0 0 0 0 0 127 0" result="hardAlpha"/>
<feOffset dy="8"/>
<feGaussianBlur stdDeviation="4"/>
<feColorMatrix type="matrix" values="0 0 0 0 0.117647 0 0 0 0 0.160784 0 0 0 0 0.231373 0 0 0 0.07 0"/>
<feBlend mode="normal" in2="effect1_dropShadow_106_2" result="effect2_dropShadow_106_2"/>
<feColorMatrix in="SourceAlpha" type="matrix" values="0 0 0 0 0 0 0 0 0 0 0 0 0 0 0 0 0 0 127 0" result="hardAlpha"/>
<feOffset dy="17"/>
<feGaussianBlur stdDeviation="5"/>
<feColorMatrix type="matrix" values="0 0 0 0 0.117647 0 0 0 0 0.160784 0 0 0 0 0.231373 0 0 0 0.04 0"/>
<feBlend mode="normal" in2="effect2_dropShadow_106_2" result="effect3_dropShadow_106_2"/>
<feColorMatrix in="SourceAlpha" type="matrix" values="0 0 0 0 0 0 0 0 0 0 0 0 0 0 0 0 0 0 127 0" result="hardAlpha"/>
<feOffset dy="30"/>
<feGaussianBlur stdDeviation="6"/>
<feColorMatrix type="matrix" values="0 0 0 0 0.117647 0 0 0 0 0.160784 0 0 0 0 0.231373 0 0 0 0.01 0"/>
<feBlend mode="normal" in2="effect3_dropShadow_106_2" result="effect4_dropShadow_106_2"/>
<feBlend mode="normal" in="SourceGraphic" in2="effect4_dropShadow_106_2" result="shape"/>
</filter>
<filter id="filter1_f_106_2" x="12" y="35.7551" width="146" height="67.2449" filterUnits="userSpaceOnUse" color-interpolation-filters="sRGB">
<feFlood flood-opacity="0" result="BackgroundImageFix"/>
<feBlend mode="normal" in="SourceGraphic" in2="BackgroundImageFix" result="shape"/>
<feGaussianBlur stdDeviation="2" result="effect1_foregroundBlur_106_2"/>
</filter>
<filter id="filter2_f_106_2" x="12" y="22.9805" width="146" height="88.0195" filterUnits="userSpaceOnUse" color-interpolation-filters="sRGB">
<feFlood flood-opacity="0" result="BackgroundImageFix"/>
<feBlend mode="normal" in="SourceGraphic" in2="BackgroundImageFix" result="shape"/>
<feGaussianBlur stdDeviation="6" result="effect1_foregroundBlur_106_2"/>
</filter>
<filter id="filter3_f_106_2" x="-8" y="4.73079" width="186" height="118.269" filterUnits="userSpaceOnUse" color-interpolation-filters="sRGB">
<feFlood flood-opacity="0" result="BackgroundImageFix"/>
<feBlend mode="normal" in="SourceGraphic" in2="BackgroundImageFix" result="shape"/>
<feGaussianBlur stdDeviation="12" result="effect1_foregroundBlur_106_2"/>
</filter>
<filter id="filter4_f_106_2" x="-3" y="-13" width="176" height="128" filterUnits="userSpaceOnUse" color-interpolation-filters="sRGB">
<feFlood flood-opacity="0" result="BackgroundImageFix"/>
<feBlend mode="normal" in="SourceGraphic" in2="BackgroundImageFix" result="shape"/>
<feGaussianBlur stdDeviation="4" result="effect1_foregroundBlur_106_2"/>
</filter>
<linearGradient id="paint0_linear_106_2" x1="72" y1="0" x2="72" y2="96" gradientUnits="userSpaceOnUse">
<stop offset="0.115385" stop-color="#750000"/>
<stop offset="0.848958" stop-color="#750000"/>
</linearGradient>
<linearGradient id="paint1_linear_106_2" x1="72" y1="0" x2="72" y2="96" gradientUnits="userSpaceOnUse">
<stop offset="1" stop-color="#690000"/>
</linearGradient>
<linearGradient id="paint2_linear_106_2" x1="85" y1="3.89719" x2="85" y2="99" gradientUnits="userSpaceOnUse">
<stop stop-color="#750000"/>
<stop offset="0.693396" stop-color="#750000"/>
</linearGradient>
</defs>
</svg>
